<svg width="30" height="28" viewBox="0 0 30 28" fill="none" xmlns="http://www.w3.org/2000/svg">
<path d="M9.70587 14.8822V12.2352H7.94116V14.8822C7.94116 15.3688 8.33699 15.7646 8.82352 15.7646C9.31005 15.7646 9.70587 15.3688 9.70587 14.8822Z" fill="#319F1C"/>
<path d="M27.0294 4.29406H21.1765V3.35288C21.1765 1.92571 20.0154 0.764648 18.5882 0.764648H11.4118C9.98459 0.764648 8.82353 1.92571 8.82353 3.35288V4.29406H2.97059C1.33259 4.29406 0 5.62665 0 7.26465V13.1176H6.17647V10.4705H11.4706V13.1176H18.5294V10.4705H23.8235V13.1176H30V7.26465C30 5.62665 28.6674 4.29406 27.0294 4.29406ZM10.5882 4.29406V3.35288C10.5882 2.89877 10.9576 2.52935 11.4118 2.52935H18.5882C19.0424 2.52935 19.4118 2.89877 19.4118 3.35288V4.29406H10.5882Z" fill="#319F1C"/>
<path d="M22.0588 14.8822V12.2352H20.2941V14.8822C20.2941 15.3688 20.69 15.7646 21.1765 15.7646C21.6631 15.7646 22.0588 15.3688 22.0588 14.8822Z" fill="#319F1C"/>
<path d="M21.1765 17.5294C19.7169 17.5294 18.5294 16.342 18.5294 14.8823H11.4706C11.4706 16.342 10.2831 17.5294 8.82353 17.5294C7.36395 17.5294 6.17647 16.342 6.17647 14.8823H1.76471V24.2647C1.76471 25.9027 3.0973 27.2353 4.7353 27.2353H6.17647V19.2941H23.8235V27.2353H25.2647C26.9027 27.2353 28.2353 25.9027 28.2353 24.2647V14.8823H23.8235C23.8235 16.342 22.6361 17.5294 21.1765 17.5294Z" fill="#319F1C"/>
<path d="M19.4118 23.7058H17.647V21.0588H7.94116V27.2352H22.0588V21.0588H19.4118V23.7058Z" fill="#319F1C"/>
</svg>
