<svg width="30" height="30" viewBox="0 0 30 30" fill="none" xmlns="http://www.w3.org/2000/svg">
<path d="M8.51625 1.12653H3.55084V8.21426L8.51625 3.65092V1.12653Z" fill="#319F1C"/>
<path d="M18.6095 27.0036V30H30V28.2422H27.4318V27.0036H18.6095Z" fill="#319F1C"/>
<path d="M22.0353 19.0884H27.4318V21.3198H22.0353V19.0884Z" fill="#319F1C"/>
<path d="M2.56818 14.928V17.3306H9.54247V23.0776H2.56818V25.2458H11.3905V17.5053H18.6094V25.2458H27.4317V23.0776H20.2775V17.3306H27.4317V14.928H2.56818Z" fill="#319F1C"/>
<path d="M13.1483 19.2631H16.8516V30H13.1483V19.2631Z" fill="#319F1C"/>
<path d="M11.3905 27.0036H2.56822V28.2422H0V30H11.3905V27.0036Z" fill="#319F1C"/>
<path d="M3.26215 13.1702H26.7414L28.7703 15.0336L30 13.7389L14.9999 0L0 13.7854L1.18336 15.0799L3.26215 13.1702ZM18.0642 5.20096L19.9781 6.95877H10.0235L11.9369 5.20096H18.0642ZM7.53568 9.24416H22.4665L24.3805 11.002H5.6223L7.53568 9.24416Z" fill="#319F1C"/>
</svg>
