<svg width="35" height="29" viewBox="0 0 35 29" fill="green" xmlns="http://www.w3.org/2000/svg">
<path d="M13.173 10.8435H22.2525L17.7257 7.13605L13.173 10.8435Z" fill="rgb(49, 159, 28)"/>
<path d="M1.75249 13.7153L3.11483 15.3747C3.35791 15.6708 3.79473 15.7145 4.09175 15.4726L17.7296 4.36667L30.9481 15.1927C31.2507 15.4406 31.698 15.3903 31.9381 15.0816L33.2749 13.3623C33.5067 13.0642 33.4584 12.6358 33.1662 12.3968L18.2198 0.171529C17.9644 -0.0373777 17.5974 -0.0381297 17.3411 0.169751L1.85196 12.7336C1.55227 12.9767 1.5077 13.4171 1.75249 13.7153Z" fill="rgb(49, 159, 28)"/>
<path d="M13.0198 16.9913H7.48594C6.98069 16.9913 6.56958 17.4081 6.56958 17.9203C6.56958 18.4325 6.98069 18.8493 7.48594 18.8493H13.0198V16.9913Z" fill="rgb(49, 159, 28)"/>
<path d="M24.8715 12.9885H10.5391L8.25775 14.8463H27.1399L24.8715 12.9885Z" fill="rgb(49, 159, 28)"/>
<path d="M6.56958 21.9232C6.56958 22.4354 6.98069 22.8521 7.48594 22.8521H13.0198V20.9943H7.48594C6.98069 20.9943 6.56958 21.411 6.56958 21.9232Z" fill="rgb(49, 159, 28)"/>
<path d="M28.0646 16.9913H21.9131V18.8493H28.0646C28.5698 18.8493 28.981 18.4326 28.981 17.9203C28.981 17.4081 28.5699 16.9913 28.0646 16.9913Z" fill="rgb(49, 159, 28)"/>
<path d="M10.4159 1.88703C10.4159 1.455 10.0656 1.10473 9.63355 1.10473L7.17781 1.08374C6.74571 1.08374 6.39551 1.43401 6.39551 1.86604V6.32855L10.4159 3.02522V1.88703H10.4159Z" fill="rgb(49, 159, 28)"/>
<path d="M33.9275 26.855H28.0646C28.5698 26.855 28.981 26.4383 28.981 25.926C28.981 25.4138 28.5699 24.9971 28.0646 24.9971H21.9131V26.855H19.7682V16.9913H15.1647V26.855H13.0197V24.9971H7.48583C6.98059 24.9971 6.56947 25.4138 6.56947 25.926C6.56947 26.4383 6.98059 26.855 7.48583 26.855H1.07249C0.480225 26.855 0 27.3352 0 27.9275C0 28.5198 0.480225 29 1.07249 29H33.9275C34.5198 29 35 28.5198 35 27.9275C35 27.3352 34.5198 26.855 33.9275 26.855Z" fill="rgb(49, 159, 28)"/>
<path d="M28.981 21.9232C28.981 21.411 28.5699 20.9943 28.0646 20.9943H21.9131V22.8521H28.0646C28.5699 22.8521 28.981 22.4354 28.981 21.9232Z" fill="rgb(49, 159, 28)"/>
</svg>
