<svg width="36" height="31" fill="none" xmlns="http://www.w3.org/2000/svg"><path d="M35.472 18.87L29.67 3.435l-.003-.009-.002-.002A5.274 5.274 0 0024.75.023a5.277 5.277 0 00-4.916 3.404 5.24 5.24 0 00-.334 1.847v6.75h-3v-6.75a5.256 5.256 0 00-5.25-5.25 5.277 5.277 0 00-4.916 3.403c0 .003 0 .006-.003.01L.528 18.864l-.001.001A8.238 8.238 0 000 21.773c0 4.55 3.702 8.25 8.25 8.25s8.25-3.7 8.25-8.25v-.75h3v.75c0 4.55 3.702 8.25 8.25 8.25s8.25-3.7 8.25-8.25a8.18 8.18 0 00-.528-2.904zM8.25 27.022a5.256 5.256 0 01-4.915-7.098 5.276 5.276 0 014.915-3.402 5.256 5.256 0 015.25 5.25 5.256 5.256 0 01-5.25 5.25zm19.5 0a5.256 5.256 0 01-5.25-5.25 5.256 5.256 0 015.25-5.25 5.276 5.276 0 014.915 3.402 5.256 5.256 0 01-4.915 7.098z" fill="#319F1C"/></svg>