<svg width="30" height="30" fill="none" xmlns="http://www.w3.org/2000/svg"><path d="M15 .001L0 12.052l2.217 2.76L15 4.542l12.783 10.27L30 12.052 15 .001zm12.545 26.48H2.455V30h25.09v-3.52zM15 16.819a2.698 2.698 0 00-2.695 2.695v5.21h5.39v-5.21A2.698 2.698 0 0015 16.82z" fill="#319F1C"/><path d="M15 6.796l-4.675 3.755h9.35L15 6.796zm6.863 5.513H8.137l-3.043 2.445v2.883h5.87A4.458 4.458 0 0115 15.061a4.458 4.458 0 014.037 2.576h5.87v-2.883l-3.044-2.445zM5.094 19.395v5.329h5.453v-5.21c0-.04.002-.08.003-.119H5.094zm14.356 0l.003.12v5.209h5.454v-5.329H19.45z" fill="#319F1C"/></svg>