<svg width="30" height="28" fill="none" xmlns="http://www.w3.org/2000/svg"><path d="M9.706 14.882v-2.647H7.94v2.647a.883.883 0 001.765 0z" fill="#319F1C"/><path d="M27.03 4.294h-5.854v-.941A2.591 2.591 0 0018.588.765h-7.176a2.591 2.591 0 00-2.588 2.588v.941H2.97A2.974 2.974 0 000 7.264v5.854h6.176V10.47h5.295v2.648h7.058V10.47h5.294v2.648H30V7.265a2.974 2.974 0 00-2.97-2.97zm-16.442 0v-.941c0-.454.37-.824.824-.824h7.176c.454 0 .824.37.824.824v.941h-8.824z" fill="#319F1C"/><path d="M22.059 14.882v-2.647h-1.765v2.647a.883.883 0 001.765 0z" fill="#319F1C"/><path d="M21.177 17.53a2.65 2.65 0 01-2.648-2.648h-7.058a2.65 2.65 0 01-2.647 2.647 2.65 2.65 0 01-2.648-2.647H1.765v9.383a2.974 2.974 0 002.97 2.97h1.441v-7.94h17.648v7.94h1.44a2.974 2.974 0 002.971-2.97v-9.383h-4.412a2.65 2.65 0 01-2.646 2.647z" fill="#319F1C"/><path d="M19.412 23.706h-1.765v-2.647H7.941v6.176H22.06V21.06h-2.647v2.647z" fill="#319F1C"/></svg>