<svg width="30" height="30" fill="none" xmlns="http://www.w3.org/2000/svg"><path d="M8.516 1.127H3.551v7.087l4.965-4.563V1.127zM18.61 27.004V30H30v-1.758h-2.568v-1.238H18.61zm3.425-7.916h5.397v2.232h-5.397v-2.232z" fill="#319F1C"/><path d="M2.568 14.928v2.403h6.974v5.747H2.568v2.168h8.822v-7.74h7.22v7.74h8.822v-2.168h-7.154V17.33h7.154v-2.403H2.568z" fill="#319F1C"/><path d="M13.148 19.263h3.704V30h-3.704V19.263zm-1.758 7.741H2.569v1.238H0V30h11.39v-2.996zM3.262 13.17h23.48l2.028 1.864L30 13.739 15 0 0 13.785l1.183 1.295 2.08-1.91zm14.802-7.969l1.914 1.758h-9.955L11.938 5.2h6.127zM7.536 9.244h14.93l1.915 1.758H5.622l1.914-1.758z" fill="#319F1C"/></svg>