<svg width="35" height="29" fill="#319F1C" xmlns="http://www.w3.org/2000/svg"><path d="M13.173 10.844h9.08l-4.527-3.708-4.553 3.708z"/><path d="M1.752 13.715l1.363 1.66c.243.296.68.34.977.098L17.73 4.367l13.218 10.826c.303.248.75.197.99-.111l1.337-1.72a.696.696 0 00-.109-.965L18.22.172a.696.696 0 00-.88-.002L1.852 12.734a.696.696 0 00-.1.981zm11.268 3.276H7.486a.924.924 0 00-.916.93c0 .512.41.928.916.928h5.534v-1.858z"/><path d="M24.872 12.989H10.539l-2.281 1.857H27.14l-2.268-1.857zM6.57 21.923c0 .512.41.93.916.93h5.534v-1.859H7.486a.924.924 0 00-.916.93zm21.495-4.932h-6.152v1.858h6.152a.924.924 0 00.916-.929.924.924 0 00-.916-.929zM10.416 1.887a.782.782 0 00-.782-.782l-2.456-.021a.782.782 0 00-.782.782v4.463l4.02-3.304V1.887z"/><path d="M33.928 26.855h-5.863a.924.924 0 00.916-.929.924.924 0 00-.916-.929h-6.152v1.858h-2.145v-9.864h-4.603v9.864H13.02v-1.858H7.486a.924.924 0 00-.917.929c0 .512.412.929.917.929H1.072a1.073 1.073 0 000 2.145h32.855a1.073 1.073 0 000-2.145z"/><path d="M28.981 21.923a.924.924 0 00-.916-.929h-6.152v1.858h6.152a.924.924 0 00.916-.929z"/></svg>