<svg width="30" height="27" fill="none" xmlns="http://www.w3.org/2000/svg"><path d="M13.688 20.813c-.613-.46-1.5-.025-1.5.75v.857a41.083 41.083 0 01-2.23-.178c-6.093-.627-8.083-2.112-8.083-2.555 0-.135.411-.77 2.41-1.436a.935.935 0 00.721-.914c0-.616-.647-1.08-1.235-.89C1.27 17.264 0 18.354 0 19.686c0 3.083 6.83 4.118 9.76 4.42a43.99 43.99 0 002.428.193v1.012c0 .775.887 1.21 1.5.75l2.5-1.875a.939.939 0 000-1.5l-2.5-1.875zm12.535-4.367a.937.937 0 10-.582 1.784c2.028.66 2.484 1.29 2.484 1.459 0 .553-2.571 2.097-8.935 2.628a.938.938 0 00.156 1.87C22.55 23.916 30 22.941 30 19.686c0-1.333-1.271-2.425-3.777-3.24zM15 0l8.75 3.75L15 7.5 6.25 3.75 15 0zm1.25 9.684v7.28l7.5-3.214V6.47l-7.5 3.214zm-2.5 0L6.25 6.47v7.28l7.5 3.214v-7.28z" fill="#319F1C"/></svg>