<svg width="40" height="40" fill="none" xmlns="http://www.w3.org/2000/svg"><g clip-path="url(#clip0_2_317)" fill="#319F1C"><path d="M12.941 21.176v-3.53h-2.353v3.53a1.178 1.178 0 002.353 0z"/><path d="M36.04 7.059h-7.805V5.804a3.455 3.455 0 00-3.45-3.451h-9.57a3.455 3.455 0 00-3.45 3.45V7.06H3.96A3.965 3.965 0 000 11.019v7.804h8.235v-3.529h7.06v3.53h9.41v-3.53h7.06v3.53H40V11.02a3.965 3.965 0 00-3.96-3.961zm-21.922 0V5.804a1.1 1.1 0 011.098-1.098h9.568a1.1 1.1 0 011.098 1.098v1.255H14.118z"/><path d="M29.412 21.176v-3.53h-2.353v3.53a1.178 1.178 0 002.353 0z"/><path d="M28.235 24.706a3.533 3.533 0 01-3.53-3.53h-9.411a3.533 3.533 0 01-3.53 3.53 3.533 3.533 0 01-3.529-3.53H2.353v12.51a3.965 3.965 0 003.96 3.961h1.922V27.06h23.53v10.588h1.921a3.965 3.965 0 003.961-3.96v-12.51h-5.882a3.533 3.533 0 01-3.53 3.529z"/><path d="M25.882 32.941H23.53v-3.53H10.59v8.236h18.823v-8.235h-3.53v3.53z"/></g><defs><clipPath id="clip0_2_317"><path fill="#fff" d="M0 0h40v40H0z"/></clipPath></defs></svg>