<svg width="40" height="40" fill="none" xmlns="http://www.w3.org/2000/svg"><path d="M36.484 0H3.516A3.52 3.52 0 000 3.516v5.859h40v-5.86A3.52 3.52 0 0036.484 0zM5.937 5.86a1.172 1.172 0 110-2.344 1.172 1.172 0 010 2.343zm4.688 0a1.172 1.172 0 110-2.344 1.172 1.172 0 010 2.343zm4.688 0a1.172 1.172 0 110-2.344 1.172 1.172 0 010 2.343zM0 27.11a3.521 3.521 0 002.422 3.34v-4.903a3.52 3.52 0 013.515-3.516h3.516v-4.297a3.52 3.52 0 013.516-3.515h21.093a3.52 3.52 0 013.516 3.515V30.45A3.521 3.521 0 0040 27.11V11.718H0v15.39z" fill="#319F1C"/><path d="M4.766 25.547v12.11a2.344 2.344 0 104.687 0V24.374H5.938c-.648 0-1.172.525-1.172 1.172zm13.672-3.125h10.156v2.344H18.437v-2.344z" fill="#319F1C"/><path d="M34.063 16.563H12.968c-.647 0-1.172.524-1.172 1.171v19.922c0 .854-.23 1.654-.63 2.344H32.89a2.344 2.344 0 002.343-2.344V17.734c0-.647-.524-1.172-1.172-1.172zm-4.297 19.921h-12.5a1.172 1.172 0 010-2.343h12.5a1.172 1.172 0 010 2.343zm0-4.687h-12.5a1.172 1.172 0 010-2.344h12.5a1.172 1.172 0 010 2.344zm1.172-5.86c0 .648-.525 1.172-1.172 1.172h-12.5a1.172 1.172 0 01-1.172-1.172V21.25c0-.647.524-1.172 1.172-1.172h12.5c.647 0 1.172.525 1.172 1.172v4.688z" fill="#319F1C"/></svg>