<svg width="40" height="40" fill="none" xmlns="http://www.w3.org/2000/svg"><g clip-path="url(#clip0_2_339)" fill="#319F1C"><path d="M40 17.849l-5.86 2.731v13.247L40 36.558v-18.71zm-8.203 3.101h-4.514v-5.135a9.525 9.525 0 01-7.13 3.206 9.545 9.545 0 01-7.924-4.228 7.705 7.705 0 01-6.87 4.228A7.67 7.67 0 010 16.84v20.89h27.283v-4.273h4.514V20.95zm-27.11 4.826h17.908v7.266H4.688v-7.266z"/><path d="M5.36 16.677a5.359 5.359 0 005.352-5.352A5.359 5.359 0 005.36 5.972a5.359 5.359 0 00-5.353 5.353 5.359 5.359 0 005.353 5.352zm16.021-.117a7.202 7.202 0 10-2.463-14.192A7.202 7.202 0 0021.38 16.56zM7.032 28.12H9.61v2.578H7.032V28.12zm4.922 0h8.297v2.578h-8.297V28.12z"/></g><defs><clipPath id="clip0_2_339"><path fill="#fff" d="M0 0h40v40H0z"/></clipPath></defs></svg>