<svg width="25" height="24" fill="none" xmlns="http://www.w3.org/2000/svg"><path fill-rule="evenodd" clip-rule="evenodd" d="M12.15 16a3.782 3.782 0 01-3.782-3.773 3.781 3.781 0 017.562 0 3.782 3.782 0 01-3.78 3.774z" fill="#fff"/><path fill-rule="evenodd" clip-rule="evenodd" d="M24.06 7.33c0-3.968-3.224-7.184-7.2-7.184H7.357C3.38.146.158 3.362.158 7.33v9.483C.158 20.784 3.38 24 7.358 24h9.501c3.978 0 7.201-3.217 7.201-7.186V7.331zm-5.663-2.792a1.403 1.403 0 100 2.804 1.403 1.403 0 100-2.804zm-6.248 1.797c-3.255 0-5.903 2.643-5.903 5.892 0 3.248 2.648 5.89 5.903 5.89 3.255 0 5.903-2.642 5.903-5.89 0-3.249-2.648-5.891-5.903-5.892z" fill="#fff"/></svg>