<svg width="29" height="17" fill="none" xmlns="http://www.w3.org/2000/svg"><path fill-rule="evenodd" clip-rule="evenodd" d="M11.196 3.831c.044 1.043.105 3.125-.373 3.893C10.166 8.78 8.856 6.81 8.52 6.29a30.552 30.552 0 01-1.59-2.729 29.936 29.936 0 01-.693-1.482c-.277-.627-.307-.975-.964-1.21C4.874.728 3.672.808 3.158.81c-.714 0-1.438-.005-2.15.01-.745.015-1.237.272-.9 1.064.38.883.945 2.052 1.393 2.926a53.809 53.809 0 002.336 4.157c1.61 2.577 3.51 5.173 6.497 6.464 1.022.443 2.284.794 3.562.78.542-.004 1.65.07 2.085-.084.703-.25.617-.669.678-1.462.047-.601.177-1.281.466-1.71.81-1.193 1.905.249 2.508.89.703.747 1.271 1.589 2.236 2.081.688.35.942.349 1.794.334l2.148-.03c.666-.007 1.41.049 1.994-.162.583-.21.83-.702.496-1.364a7.063 7.063 0 00-.87-1.301c-.312-.367-.675-.803-1.034-1.142l-.542-.545c-.296-.308-.775-.72-1.102-1.044-.663-.655-1.283-1.113-.744-2.12.235-.44.608-.911.897-1.278.969-1.23 2.978-3.791 3.439-5.2.25-.767.11-1.14-.674-1.245-.266-.035-3.942.012-4.302.014-.814.007-1.3-.146-1.637.531-.12.242-.211.518-.318.773l-.323.732c-.577 1.33-2.53 4.763-3.56 5.08-.617.189-.865-.696-.914-1.224-.08-.848.04-3.262.068-4.253.019-.627.043-1.409-.318-1.821-.595-.683-2.623-.583-3.736-.577-.631.004-1.4.038-1.983.185-.451.114-1.25.523-1.19.95.076.04.331.078.445.11.39.106.765.34.943.672.275.511.322 1.173.35 1.83z" fill="#fff"/></svg>