<svg width="29" height="21" fill="none" xmlns="http://www.w3.org/2000/svg"><path fill-rule="evenodd" clip-rule="evenodd" d="M18.326 10.716c-.027.027-2.301 1.238-2.536 1.346l-.863.485-1.7.888c-.156.08-1.62.888-1.725.915V5.978l.157.107c.131.027.393.189.523.243.889.511 7.085 3.796 7.137 3.876l-.993.512zM0 8.536v3.795c.026.054.052 1.185.052 1.373.105 1.642.21 4.2 1.255 5.546.418.565 1.124.996 1.96 1.212.759.188 1.7.269 2.51.296 2.118.134 4.628.188 6.797.215.21 0 1.255-.027 1.386.027h1.385c.131-.054.915-.027 1.098-.027a175.59 175.59 0 007.555-.242c1.595-.108 2.432-.27 3.373-1.13.392-.405.627-.755.862-1.4.21-.512.392-1.24.47-1.832.158-1.373.262-2.853.288-4.28.027-2.208.027-6.623-.522-8.642-.34-1.185-.81-2.073-1.883-2.638-.575-.323-1.045-.431-1.777-.485-.68-.08-1.386-.108-2.092-.135A193.761 193.761 0 009.594.055c-1.412.054-2.876.08-4.287.188-1.516.108-2.536.135-3.503.97-.418.376-.68.673-.967 1.319a8.5 8.5 0 00-.497 1.75C.21 4.928.157 5.708.13 6.355.106 6.73.079 7.08.053 7.43c0 .189-.026.997-.052 1.104z" fill="#fff"/></svg>